<svg width="17" height="17" viewBox="0 0 17 17" fill="none" xmlns="http://www.w3.org/2000/svg">
<path fill-rule="evenodd" clip-rule="evenodd" d="M3.15363 11.22C3.33398 11.22 3.50694 11.2916 3.63447 11.4192C3.76199 11.5467 3.83363 11.7197 3.83363 11.9V13.26C3.83363 13.4403 3.90528 13.6133 4.0328 13.7408C4.16032 13.8684 4.33329 13.94 4.51363 13.94H12.6736C12.854 13.94 13.0269 13.8684 13.1545 13.7408C13.282 13.6133 13.3536 13.4403 13.3536 13.26V11.9C13.3536 11.7197 13.4253 11.5467 13.5528 11.4192C13.6803 11.2916 13.8533 11.22 14.0336 11.22C14.214 11.22 14.3869 11.2916 14.5145 11.4192C14.642 11.5467 14.7136 11.7197 14.7136 11.9V13.26C14.7136 13.801 14.4987 14.3199 14.1161 14.7025C13.7336 15.0851 13.2147 15.3 12.6736 15.3H4.51363C3.97259 15.3 3.45371 15.0851 3.07114 14.7025C2.68856 14.3199 2.47363 13.801 2.47363 13.26V11.9C2.47363 11.7197 2.54528 11.5467 2.6728 11.4192C2.80032 11.2916 2.97329 11.22 3.15363 11.22Z" fill="#707070"/>
<path fill-rule="evenodd" clip-rule="evenodd" d="M4.71277 7.33925C4.84029 7.21177 5.01321 7.14015 5.19353 7.14015C5.37384 7.14015 5.54677 7.21177 5.67429 7.33925L8.59353 10.2585L11.5128 7.33925C11.5755 7.2743 11.6505 7.2225 11.7335 7.18686C11.8165 7.15122 11.9057 7.13246 11.996 7.13168C12.0863 7.13089 12.1758 7.1481 12.2594 7.18229C12.3429 7.21648 12.4189 7.26697 12.4827 7.33082C12.5466 7.39467 12.5971 7.47059 12.6312 7.55416C12.6654 7.63773 12.6826 7.72727 12.6819 7.81756C12.6811 7.90785 12.6623 7.99708 12.6267 8.08004C12.591 8.16301 12.5392 8.23804 12.4743 8.30077L9.07429 11.7008C8.94677 11.8282 8.77384 11.8999 8.59353 11.8999C8.41321 11.8999 8.24029 11.8282 8.11277 11.7008L4.71277 8.30077C4.58529 8.17325 4.51367 8.00032 4.51367 7.82001C4.51367 7.6397 4.58529 7.46677 4.71277 7.33925Z" fill="#707070"/>
<path fill-rule="evenodd" clip-rule="evenodd" d="M8.59406 2.38C8.77441 2.38 8.94737 2.45165 9.07489 2.57917C9.20242 2.7067 9.27406 2.87966 9.27406 3.06V11.22C9.27406 11.4004 9.20242 11.5733 9.07489 11.7008C8.94737 11.8284 8.77441 11.9 8.59406 11.9C8.41372 11.9 8.24075 11.8284 8.11323 11.7008C7.98571 11.5733 7.91406 11.4004 7.91406 11.22V3.06C7.91406 2.87966 7.98571 2.7067 8.11323 2.57917C8.24075 2.45165 8.41372 2.38 8.59406 2.38Z" fill="#707070"/>
</svg>
