<svg width="17" height="17" viewBox="0 0 17 17" fill="none" xmlns="http://www.w3.org/2000/svg">
<path d="M10.6105 8.64317L11.5761 7.67763C11.6463 7.94046 11.6875 8.21525 11.6875 8.5C11.6875 10.2576 10.2576 11.6875 8.49998 11.6875C8.21523 11.6875 7.94045 11.6463 7.67761 11.5761L8.64316 10.6105C9.15351 10.5759 9.63403 10.3575 9.99573 9.99575C10.3574 9.63404 10.5758 9.15353 10.6105 8.64317ZM16.933 8.24195C16.8677 8.12441 15.9409 6.50051 14.1294 5.12431L13.3563 5.89741C14.6772 6.86867 15.5142 8.00142 15.8437 8.5008C15.2141 9.45957 12.744 12.75 8.49998 12.75C7.86355 12.75 7.27173 12.6686 6.71485 12.5387L5.84188 13.4117C6.64446 13.6578 7.5266 13.8125 8.49998 13.8125C14.0612 13.8125 16.8184 8.96431 16.933 8.75806C16.9769 8.67913 17 8.59031 17 8.5C17 8.40969 16.9769 8.32087 16.933 8.24195ZM14.7193 3.03185L3.03183 14.7193C2.9281 14.8231 2.7921 14.875 2.65623 14.875C2.52037 14.875 2.38437 14.8231 2.28064 14.7193C2.23128 14.67 2.19212 14.6115 2.1654 14.547C2.13869 14.4826 2.12493 14.4135 2.12493 14.3438C2.12493 14.274 2.13869 14.2049 2.1654 14.1405C2.19212 14.076 2.23128 14.0175 2.28064 13.9682L3.76761 12.4812C1.3637 11.0299 0.142227 8.89366 0.0669225 8.75806C0.023033 8.67911 0 8.59027 0 8.49994C0 8.40961 0.023033 8.32077 0.0669225 8.24182C0.18154 8.03569 2.93873 3.1875 8.49998 3.1875C9.93795 3.1875 11.1835 3.51555 12.2482 4.00058L13.9681 2.28066C14.1757 2.07307 14.5119 2.07307 14.7193 2.28066C14.9268 2.48824 14.9269 2.82439 14.7193 3.03185ZM4.55984 11.689L5.90483 10.344C5.53335 9.82282 5.31248 9.18731 5.31248 8.5C5.31248 6.74236 6.74234 5.3125 8.49998 5.3125C9.18729 5.3125 9.8228 5.53337 10.344 5.90471L11.4316 4.81711C10.5723 4.47299 9.59582 4.25 8.49998 4.25C4.25596 4.25 1.78591 7.54043 1.15638 8.49921C1.55615 9.1051 2.70524 10.6388 4.55984 11.689ZM6.67607 9.5726L9.57258 6.67609C9.25662 6.48949 8.89284 6.375 8.49998 6.375C7.32831 6.375 6.37498 7.32833 6.37498 8.5C6.37498 8.89286 6.48947 9.25663 6.67607 9.5726Z" fill="#707070"/>
</svg>
