<svg width="17" height="17" viewBox="0 0 17 17" fill="none" xmlns="http://www.w3.org/2000/svg">
<path d="M8.49998 13.8125C2.93873 13.8125 0.18154 8.96431 0.0669225 8.75805C0.023033 8.6791 0 8.59026 0 8.49993C0 8.4096 0.023033 8.32076 0.0669225 8.24181C0.18154 8.03569 2.93873 3.1875 8.49998 3.1875C14.0612 3.1875 16.8184 8.03569 16.933 8.24195C16.9769 8.3209 17 8.40974 17 8.50007C17 8.5904 16.9769 8.67924 16.933 8.75819C16.8184 8.96431 14.0612 13.8125 8.49998 13.8125ZM1.15638 8.4992C1.78831 9.45691 4.26938 12.75 8.49998 12.75C12.744 12.75 15.2141 9.45957 15.8436 8.5008C15.2117 7.54309 12.7306 4.25 8.49998 4.25C4.25596 4.25 1.78591 7.54043 1.15638 8.4992ZM8.49998 11.6875C6.74234 11.6875 5.31248 10.2576 5.31248 8.5C5.31248 6.74236 6.74234 5.3125 8.49998 5.3125C10.2576 5.3125 11.6875 6.74236 11.6875 8.5C11.6875 10.2576 10.2576 11.6875 8.49998 11.6875ZM8.49998 6.375C7.32831 6.375 6.37498 7.32833 6.37498 8.5C6.37498 9.67167 7.32831 10.625 8.49998 10.625C9.67166 10.625 10.625 9.67167 10.625 8.5C10.625 7.32833 9.67166 6.375 8.49998 6.375Z" fill="#707070"/>
</svg>
