<svg width="17" height="17" viewBox="0 0 17 17" fill="none" xmlns="http://www.w3.org/2000/svg">
<path d="M8.5 13.4583H4.95833C4.17917 13.4583 3.54167 12.8208 3.54167 12.0417V4.95833C3.54167 4.17917 4.17917 3.54167 4.95833 3.54167H8.5C8.88958 3.54167 9.20833 3.22292 9.20833 2.83333C9.20833 2.44375 8.88958 2.125 8.5 2.125H4.95833C3.39292 2.125 2.125 3.39292 2.125 4.95833V12.0417C2.125 13.6071 3.39292 14.875 4.95833 14.875H8.5C8.88958 14.875 9.20833 14.5562 9.20833 14.1667C9.20833 13.7771 8.88958 13.4583 8.5 13.4583Z" fill="#707070"/>
<path d="M14.6699 7.99707L12.5449 5.87207C12.4793 5.80649 12.4015 5.75447 12.3158 5.71898C12.2301 5.68349 12.1383 5.66522 12.0455 5.66522C11.9528 5.66522 11.861 5.68349 11.7753 5.71898C11.6896 5.75447 11.6117 5.80649 11.5462 5.87207C11.4806 5.93765 11.4286 6.0155 11.3931 6.10119C11.3576 6.18687 11.3393 6.2787 11.3393 6.37145C11.3393 6.46419 11.3576 6.55602 11.3931 6.6417C11.4286 6.72739 11.4806 6.80524 11.5462 6.87082L12.4599 7.78457H6.37533C5.98574 7.78457 5.66699 8.10332 5.66699 8.4929C5.66699 8.88249 5.98574 9.20124 6.37533 9.20124H12.4599L11.5462 10.115C11.4473 10.2139 11.3801 10.34 11.353 10.4772C11.326 10.6144 11.3403 10.7565 11.3942 10.8856C11.4481 11.0146 11.5391 11.1247 11.6557 11.2019C11.7723 11.2791 11.9092 11.3199 12.0491 11.3192C12.2332 11.3192 12.4103 11.2483 12.552 11.1137L14.677 8.98874C14.7427 8.92321 14.7948 8.84537 14.8303 8.75968C14.8658 8.67399 14.8841 8.58213 14.8841 8.48936C14.8841 8.39659 14.8658 8.30473 14.8303 8.21904C14.7948 8.13335 14.7427 8.05552 14.677 7.98999L14.6699 7.99707Z" fill="#707070"/>
</svg>
