<svg width="17" height="17" viewBox="0 0 17 17" fill="none" xmlns="http://www.w3.org/2000/svg">
<path d="M11.2068 16.5574C11.1182 16.5876 11.0291 16.6161 10.9395 16.643C11.0294 16.616 11.1182 16.587 11.2068 16.5574ZM11.6508 16.3944C11.5553 16.4325 11.4597 16.4701 11.3624 16.5046C11.4592 16.4697 11.5554 16.4329 11.6508 16.3944Z" fill="#F9EDE0"/>
<path d="M8.5 17C13.1944 17 17 13.1944 17 8.5C17 3.80558 13.1944 0 8.5 0C3.80558 0 0 3.80558 0 8.5C0 13.1944 3.80558 17 8.5 17Z" fill="#EFECE8"/>
<path d="M7.88383 16.9754C7.78007 16.968 7.6766 16.9601 7.57431 16.949C7.6769 16.9601 7.78036 16.968 7.88383 16.9754ZM6.49393 16.7596C6.406 16.7383 6.31866 16.7154 6.2316 16.6914C6.31866 16.7157 6.406 16.7385 6.49393 16.7596ZM7.39845 16.9267C7.30572 16.915 7.21318 16.9018 7.12088 16.8871C7.21262 16.9021 7.30554 16.9144 7.39845 16.9267ZM9.87869 16.8869C9.78666 16.9018 9.69404 16.9144 9.60112 16.9264C9.69374 16.9144 9.78666 16.9021 9.87869 16.8869ZM12.1646 16.1708C12.0361 16.2321 11.9061 16.2903 11.7748 16.3452C11.9062 16.2904 12.0362 16.2323 12.1646 16.1708ZM11.7748 16.3452C11.7337 16.3625 11.6918 16.3777 11.6505 16.3941C11.6915 16.3777 11.7334 16.3625 11.7748 16.3452ZM12.1763 16.1655C12.1725 16.1673 12.1684 16.169 12.1646 16.1708C12.1684 16.169 12.1725 16.1676 12.1763 16.1655ZM7.12059 16.8869C7.06001 16.8767 6.99953 16.866 6.93916 16.8546C6.99983 16.8658 7.05991 16.8772 7.12059 16.8869ZM8.0336 16.9868C7.98348 16.9842 7.93366 16.9789 7.88383 16.9754C7.93395 16.9789 7.98348 16.9842 8.0336 16.9868ZM5.34907 16.3944C5.30774 16.378 5.26583 16.3625 5.22479 16.3455C5.26583 16.3625 5.30774 16.3777 5.34907 16.3944ZM5.79312 16.5574C5.74124 16.5398 5.68878 16.5231 5.63748 16.5046C5.68878 16.5231 5.74095 16.5398 5.79312 16.5574ZM9.60083 16.9267C9.54221 16.9343 9.48388 16.9428 9.42497 16.949C9.48388 16.9425 9.54221 16.9343 9.60083 16.9267ZM10.5053 16.7596C10.4458 16.774 10.3861 16.7878 10.326 16.801C10.3861 16.7881 10.4458 16.7743 10.5053 16.7596ZM6.2319 16.6916C6.17474 16.6758 6.11729 16.66 6.06043 16.643C6.11729 16.66 6.17445 16.6758 6.2319 16.6916Z" fill="#F9EDE0"/>
<path d="M10.4453 9.08446C11.3923 8.45399 12.0169 7.37801 12.0169 6.15518C12.0169 4.21278 10.4421 2.63794 8.49969 2.63794C6.55729 2.63794 4.98245 4.21278 4.98245 6.15518C4.98245 7.37801 5.60705 8.45399 6.55407 9.08446C6.55407 9.08446 6.55436 9.08475 6.55465 9.08475C6.55436 9.08475 6.55436 9.08446 6.55436 9.08446C4.2875 9.76768 2.52243 11.6075 1.9541 13.9221L1.95439 13.9224C2.04729 14.034 2.14297 14.1433 2.24134 14.2501C2.26508 14.2762 2.29 14.3011 2.31433 14.3266C2.38973 14.407 2.46663 14.486 2.545 14.5634C2.57753 14.5954 2.61065 14.6262 2.64377 14.6575C2.71634 14.7268 2.79011 14.7948 2.86507 14.8615C2.90229 14.8944 2.9401 14.9269 2.97762 14.9591C3.05119 15.0221 3.12564 15.084 3.20155 15.1444C3.24141 15.1763 3.28157 15.2077 3.32172 15.239C3.39852 15.2981 3.4764 15.3558 3.55533 15.412C3.59607 15.441 3.63622 15.4706 3.67755 15.499C3.76079 15.5565 3.8455 15.6116 3.93079 15.6661C3.96919 15.6904 4.00671 15.7156 4.04539 15.7397C4.14417 15.8002 4.24413 15.8587 4.34524 15.9152C4.37191 15.9302 4.398 15.9463 4.42496 15.961C4.55592 16.0327 4.68874 16.1011 4.82329 16.1658C4.82652 16.1673 4.83003 16.1688 4.83326 16.1702C4.96193 16.2318 5.09265 16.2901 5.22484 16.3452C5.26588 16.3625 5.30779 16.3777 5.34912 16.3942C5.44467 16.4323 5.54022 16.4698 5.63753 16.5044C5.68912 16.5228 5.74129 16.5395 5.79317 16.5571C5.88169 16.587 5.97079 16.616 6.06048 16.6427C6.11734 16.6597 6.1745 16.6755 6.23195 16.6914C6.31871 16.7154 6.40605 16.7383 6.49427 16.7597C6.64176 16.7954 6.79023 16.827 6.9395 16.8543C6.99988 16.8655 7.05996 16.8769 7.12093 16.8866C7.21296 16.9015 7.30558 16.9141 7.3985 16.9261C7.45712 16.9338 7.51545 16.9423 7.57436 16.9484C7.67695 16.9596 7.78041 16.9675 7.88388 16.9748C7.934 16.9783 7.98353 16.9836 8.03365 16.9862C8.18812 16.995 8.34317 17 8.49969 17C8.65621 17 8.81126 16.995 8.96572 16.9868C9.01584 16.9842 9.06567 16.9789 9.1155 16.9754C9.21926 16.9681 9.32272 16.9601 9.42502 16.949C9.48393 16.9426 9.54226 16.9344 9.60088 16.9267C9.69379 16.9147 9.78641 16.9021 9.87845 16.8872C9.93912 16.8772 9.9995 16.8661 10.0599 16.8549C10.2092 16.8277 10.3576 16.7961 10.5051 16.7602C10.593 16.7389 10.6804 16.716 10.7674 16.692C10.8246 16.6761 10.882 16.6603 10.9389 16.6433C11.0289 16.6163 11.1177 16.5873 11.2062 16.5577C11.2581 16.5401 11.3106 16.5234 11.3618 16.505C11.4586 16.4699 11.5548 16.4331 11.6503 16.3948C11.6916 16.3783 11.7335 16.3628 11.7745 16.3458C11.9059 16.291 12.0359 16.2329 12.1644 16.1714C12.1682 16.1696 12.1723 16.1679 12.1761 16.1661C12.3109 16.1014 12.4437 16.0328 12.5744 15.9613C12.6014 15.9466 12.6275 15.9305 12.6541 15.9155C12.7552 15.859 12.8552 15.8005 12.954 15.74C12.9927 15.7162 13.0305 15.691 13.0686 15.6664C13.1539 15.6119 13.2386 15.5565 13.3218 15.4993C13.3629 15.4709 13.4033 15.4416 13.4441 15.4123C13.5228 15.3559 13.6007 15.2982 13.6777 15.2393C13.718 15.2082 13.7581 15.1766 13.7978 15.1447C13.8735 15.0842 13.9482 15.0225 14.0218 14.9594C14.0596 14.9272 14.0974 14.8946 14.1343 14.8618C14.2093 14.7951 14.283 14.7271 14.3556 14.6578C14.3884 14.6265 14.4218 14.5954 14.4544 14.5637C14.5328 14.4863 14.6097 14.4074 14.6851 14.3269C14.7091 14.3011 14.734 14.2762 14.758 14.2504C14.8562 14.1434 14.9524 14.0344 15.045 13.9227L15.0453 13.9224C14.4772 11.6075 12.7122 9.76768 10.4453 9.08446Z" fill="#C6C3BD"/>
</svg>
