<svg width="21" height="21" viewBox="0 0 21 21" fill="none" xmlns="http://www.w3.org/2000/svg">
<path d="M9.73528 3.00283C7.94989 3.00582 6.23849 3.71639 4.97602 4.97885C3.71356 6.24132 3.00299 7.95272 3 9.73811C3.00149 11.525 3.71122 13.2384 4.97368 14.503C6.23614 15.7676 7.94839 16.4802 9.73528 16.4847C11.3201 16.4847 12.7803 15.9272 13.9349 15.0046L16.7394 17.8091C16.8815 17.9412 17.0692 18.0131 17.2632 18.0097C17.4572 18.0063 17.6423 17.9279 17.7796 17.7909C17.917 17.6539 17.9959 17.469 17.9998 17.2751C18.0038 17.0811 17.9324 16.8932 17.8006 16.7507L14.9962 13.9434C15.954 12.7522 16.4762 11.2695 16.4762 9.74094C16.4762 6.02805 13.4482 3.00283 9.73528 3.00283ZM9.73528 4.5027C12.6388 4.5027 14.9763 6.83741 14.9763 9.73811C14.9763 12.6388 12.6388 14.9877 9.73528 14.9877C6.83175 14.9877 4.49704 12.6473 4.49704 9.74377C4.49704 6.84024 6.83175 4.5027 9.73528 4.5027Z" fill="#707070"/>
</svg>
